<?xml version="1.0" encoding="UTF-8" standalone="no"?><svg xmlns="http://www.w3.org/2000/svg" xmlns:xlink="http://www.w3.org/1999/xlink" contentStyleType="text/css" height="875px" preserveAspectRatio="none" style="width:1350px;height:875px;background:#FFFFFF;" version="1.1" viewBox="0 0 1350 875" width="1350px" zoomAndPan="magnify"><defs/><g><ellipse cx="649" cy="20" fill="#222222" rx="10" ry="10" style="stroke:#222222;stroke-width:1.0;"/><rect fill="#F1F1F1" height="64.2344" rx="12.5" ry="12.5" style="stroke:#181818;stroke-width:0.5;" width="130" x="584" y="50"/><text fill="#000000" font-family="sans-serif" font-size="14" font-weight="bold" lengthAdjust="spacing" textLength="94" x="594" y="72.9951">Normal BAM</text><text fill="#000000" font-family="sans-serif" font-size="12" lengthAdjust="spacing" textLength="12" x="594" y="87.4355">---</text><text fill="#000000" font-family="sans-serif" font-size="12" lengthAdjust="spacing" textLength="110" x="594" y="101.4043">Input Normal BAM</text><rect fill="#F1F1F1" height="64.2344" rx="12.5" ry="12.5" style="stroke:#181818;stroke-width:0.5;" width="344" x="477" y="134.2344"/><text fill="#000000" font-family="sans-serif" font-size="14" font-weight="bold" lengthAdjust="spacing" textLength="122" x="487" y="157.2295">Input Validation</text><text fill="#000000" font-family="sans-serif" font-size="12" lengthAdjust="spacing" textLength="12" x="487" y="171.6699">---</text><text fill="#000000" font-family="sans-serif" font-size="12" lengthAdjust="spacing" textLength="324" x="487" y="185.6387">Validate the input BAM and corresponding index file</text><rect fill="#555555" height="6" rx="2.5" ry="2.5" style="stroke:#555555;stroke-width:1.0;" width="1328" x="11" y="218.4688"/><line style="stroke:#181818;stroke-width:1.5;" x1="234.5" x2="560" y1="292.8711" y2="292.8711"/><rect fill="#F1F1F1" height="78.2031" rx="12.5" ry="12.5" style="stroke:#181818;stroke-width:0.5;" width="205" x="132" y="312.8711"/><text fill="#000000" font-family="sans-serif" font-size="14" font-weight="bold" lengthAdjust="spacing" textLength="84" x="142" y="335.8662">DELLY gSV</text><text fill="#000000" font-family="sans-serif" font-size="12" lengthAdjust="spacing" textLength="12" x="142" y="350.3066">---</text><text fill="#000000" font-family="sans-serif" font-size="12" lengthAdjust="spacing" textLength="185" x="142" y="364.2754">Call germline SVs using DELLY</text><text fill="#000000" font-family="sans-serif" font-size="12" lengthAdjust="spacing" textLength="33" x="142" y="378.2441">(BCF)</text><line style="stroke:#181818;stroke-width:1.5;" x1="113.5" x2="339" y1="423.8281" y2="423.8281"/><rect fill="#F1F1F1" height="78.2031" rx="12.5" ry="12.5" style="stroke:#181818;stroke-width:0.5;" width="181" x="23" y="544.5625"/><text fill="#000000" font-family="sans-serif" font-size="14" font-weight="bold" lengthAdjust="spacing" textLength="93" x="33" y="567.5576">CIRCOS plot</text><text fill="#000000" font-family="sans-serif" font-size="12" lengthAdjust="spacing" textLength="12" x="33" y="581.998">---</text><text fill="#000000" font-family="sans-serif" font-size="12" lengthAdjust="spacing" textLength="161" x="33" y="595.9668">Plot CIRCOS for DELLY gSV</text><text fill="#000000" font-family="sans-serif" font-size="12" lengthAdjust="spacing" textLength="36" x="33" y="609.9355">(PNG)</text><rect fill="#F1F1F1" height="78.2031" rx="12.5" ry="12.5" style="stroke:#181818;stroke-width:0.5;" width="214" x="232" y="445.3281"/><text fill="#000000" font-family="sans-serif" font-size="14" font-weight="bold" lengthAdjust="spacing" textLength="96" x="242" y="468.3232">DELLY gCNV</text><text fill="#000000" font-family="sans-serif" font-size="12" lengthAdjust="spacing" textLength="12" x="242" y="482.7637">---</text><text fill="#000000" font-family="sans-serif" font-size="12" lengthAdjust="spacing" textLength="194" x="242" y="496.7324">Call germline CNVs using DELLY</text><text fill="#000000" font-family="sans-serif" font-size="12" lengthAdjust="spacing" textLength="33" x="242" y="510.7012">(BCF)</text><rect fill="#F1F1F1" height="64.2344" rx="12.5" ry="12.5" style="stroke:#181818;stroke-width:0.5;" width="183" x="247.5" y="558.5313"/><text fill="#000000" font-family="sans-serif" font-size="14" font-weight="bold" lengthAdjust="spacing" textLength="23" x="257.5" y="581.5264">QC</text><text fill="#000000" font-family="sans-serif" font-size="12" lengthAdjust="spacing" textLength="12" x="257.5" y="595.9668">---</text><text fill="#000000" font-family="sans-serif" font-size="12" lengthAdjust="spacing" textLength="163" x="257.5" y="609.9355">Quality Check variant calls</text><rect fill="#F1F1F1" height="64.2344" rx="12.5" ry="12.5" style="stroke:#181818;stroke-width:0.5;" width="156" x="261" y="657.7656"/><text fill="#000000" font-family="sans-serif" font-size="14" font-weight="bold" lengthAdjust="spacing" textLength="136" x="271" y="680.7607">Output Validation</text><text fill="#000000" font-family="sans-serif" font-size="12" lengthAdjust="spacing" textLength="12" x="271" y="695.2012">---</text><text fill="#000000" font-family="sans-serif" font-size="12" lengthAdjust="spacing" textLength="124" x="271" y="709.1699">Validate BCF output</text><line style="stroke:#181818;stroke-width:1.5;" x1="113.5" x2="339" y1="742" y2="742"/><rect fill="#F1F1F1" height="78.2031" rx="12.5" ry="12.5" style="stroke:#181818;stroke-width:0.5;" width="208" x="456" y="431.3594"/><text fill="#000000" font-family="sans-serif" font-size="14" font-weight="bold" lengthAdjust="spacing" textLength="83" x="466" y="454.3545">Manta gSV</text><text fill="#000000" font-family="sans-serif" font-size="12" lengthAdjust="spacing" textLength="12" x="466" y="468.7949">---</text><text fill="#000000" font-family="sans-serif" font-size="12" lengthAdjust="spacing" textLength="188" x="466" y="482.7637">Call germline SVs using Manta</text><text fill="#000000" font-family="sans-serif" font-size="12" lengthAdjust="spacing" textLength="33" x="466" y="496.7324">(VCF)</text><rect fill="#F1F1F1" height="78.2031" rx="12.5" ry="12.5" style="stroke:#181818;stroke-width:0.5;" width="184" x="468" y="544.5625"/><text fill="#000000" font-family="sans-serif" font-size="14" font-weight="bold" lengthAdjust="spacing" textLength="93" x="478" y="567.5576">CIRCOS plot</text><text fill="#000000" font-family="sans-serif" font-size="12" lengthAdjust="spacing" textLength="12" x="478" y="581.998">---</text><text fill="#000000" font-family="sans-serif" font-size="12" lengthAdjust="spacing" textLength="164" x="478" y="595.9668">Plot CIRCOS for Manta gSV</text><text fill="#000000" font-family="sans-serif" font-size="12" lengthAdjust="spacing" textLength="36" x="478" y="609.9355">(PNG)</text><line style="stroke:#181818;stroke-width:1.5;" x1="234.5" x2="560" y1="762" y2="762"/><polygon fill="#F1F1F1" points="313,244.4688,392,244.4688,404,256.4688,392,268.4688,313,268.4688,301,256.4688,313,244.4688" style="stroke:#181818;stroke-width:0.5;"/><text fill="#000000" font-family="sans-serif" font-size="11" lengthAdjust="spacing" textLength="23" x="356.5" y="278.6792">true</text><text fill="#000000" font-family="sans-serif" font-size="11" lengthAdjust="spacing" textLength="79" x="313" y="260.2769">run_discovery</text><text fill="#000000" font-family="sans-serif" font-size="11" lengthAdjust="spacing" textLength="28" x="404" y="253.8745">false</text><polygon fill="#F1F1F1" points="352.5,782,364.5,794,352.5,806,340.5,794,352.5,782" style="stroke:#181818;stroke-width:0.5;"/><ellipse cx="352.5" cy="837" rx="11" ry="11" style="stroke:#222222;stroke-width:1.0;fill:none;"/><ellipse cx="352.5" cy="837" fill="#222222" rx="6" ry="6" style="stroke:#111111;stroke-width:1.0;"/><line style="stroke:#181818;stroke-width:1.5;" x1="829" x2="1227.5" y1="459.4766" y2="459.4766"/><path d="M926,499.3633 L926,523.0625 L906,527.0625 L926,531.0625 L926,554.7617 A0,0 0 0 0 926,554.7617 L1007,554.7617 A0,0 0 0 0 1007,554.7617 L1007,509.3633 L997,499.3633 L926,499.3633 A0,0 0 0 0 926,499.3633 " fill="#FEFFDD" style="stroke:#181818;stroke-width:0.5;"/><path d="M997,499.3633 L997,509.3633 L1007,509.3633 L997,499.3633 " fill="#FEFFDD" style="stroke:#181818;stroke-width:0.5;"/><text fill="#000000" font-family="sans-serif" font-size="13" lengthAdjust="spacing" textLength="32" x="932" y="516.4302">input</text><text fill="#000000" font-family="sans-serif" font-size="13" lengthAdjust="spacing" textLength="50" x="932" y="531.563">merged</text><text fill="#000000" font-family="sans-serif" font-size="13" lengthAdjust="spacing" textLength="60" x="932" y="546.6958">gSV sites</text><rect fill="#F1F1F1" height="92.1719" rx="12.5" ry="12.5" style="stroke:#181818;stroke-width:0.5;" width="154" x="752" y="480.9766"/><text fill="#000000" font-family="sans-serif" font-size="14" font-weight="bold" lengthAdjust="spacing" textLength="131" x="762" y="503.9717">Regenotype gSV</text><text fill="#000000" font-family="sans-serif" font-size="12" lengthAdjust="spacing" textLength="12" x="762" y="518.4121">---</text><text fill="#000000" font-family="sans-serif" font-size="12" lengthAdjust="spacing" textLength="102" x="762" y="532.3809">Regenotype SVs</text><text fill="#000000" font-family="sans-serif" font-size="12" lengthAdjust="spacing" textLength="134" x="762" y="546.3496">using DELLY gSV calls</text><text fill="#000000" font-family="sans-serif" font-size="12" lengthAdjust="spacing" textLength="33" x="762" y="560.3184">(BCF)</text><path d="M1035,499.3633 L1035,554.7617 A0,0 0 0 0 1035,554.7617 L1126,554.7617 A0,0 0 0 0 1126,554.7617 L1126,531.0625 L1146,527.0625 L1126,523.0625 L1126,509.3633 L1116,499.3633 L1035,499.3633 A0,0 0 0 0 1035,499.3633 " fill="#FEFFDD" style="stroke:#181818;stroke-width:0.5;"/><path d="M1116,499.3633 L1116,509.3633 L1126,509.3633 L1116,499.3633 " fill="#FEFFDD" style="stroke:#181818;stroke-width:0.5;"/><text fill="#000000" font-family="sans-serif" font-size="13" lengthAdjust="spacing" textLength="32" x="1041" y="516.4302">input</text><text fill="#000000" font-family="sans-serif" font-size="13" lengthAdjust="spacing" textLength="50" x="1041" y="531.563">merged</text><text fill="#000000" font-family="sans-serif" font-size="13" lengthAdjust="spacing" textLength="70" x="1041" y="546.6958">gCNV sites</text><rect fill="#F1F1F1" height="92.1719" rx="12.5" ry="12.5" style="stroke:#181818;stroke-width:0.5;" width="163" x="1146" y="480.9766"/><text fill="#000000" font-family="sans-serif" font-size="14" font-weight="bold" lengthAdjust="spacing" textLength="143" x="1156" y="503.9717">Regenotype gCNV</text><text fill="#000000" font-family="sans-serif" font-size="12" lengthAdjust="spacing" textLength="12" x="1156" y="518.4121">---</text><text fill="#000000" font-family="sans-serif" font-size="12" lengthAdjust="spacing" textLength="111" x="1156" y="532.3809">Regenotype CNVs</text><text fill="#000000" font-family="sans-serif" font-size="12" lengthAdjust="spacing" textLength="143" x="1156" y="546.3496">using DELLY gCNV calls</text><text fill="#000000" font-family="sans-serif" font-size="12" lengthAdjust="spacing" textLength="33" x="1156" y="560.3184">(BCF)</text><line style="stroke:#181818;stroke-width:1.5;" x1="829" x2="1227.5" y1="593.1484" y2="593.1484"/><polygon fill="#F1F1F1" points="981,411.0742,1080,411.0742,1092,423.0742,1080,435.0742,981,435.0742,969,423.0742,981,411.0742" style="stroke:#181818;stroke-width:0.5;"/><text fill="#000000" font-family="sans-serif" font-size="11" lengthAdjust="spacing" textLength="23" x="1034.5" y="445.2847">true</text><text fill="#000000" font-family="sans-serif" font-size="11" lengthAdjust="spacing" textLength="99" x="981" y="426.8823">run_regenotyping</text><text fill="#000000" font-family="sans-serif" font-size="11" lengthAdjust="spacing" textLength="28" x="1092" y="420.48">false</text><polygon fill="#F1F1F1" points="1030.5,619.0508,1042.5,631.0508,1030.5,643.0508,1018.5,631.0508,1030.5,619.0508" style="stroke:#181818;stroke-width:0.5;"/><ellipse cx="1030.5" cy="689.0508" rx="11" ry="11" style="stroke:#222222;stroke-width:1.0;fill:none;"/><ellipse cx="1030.5" cy="689.0508" fill="#222222" rx="6" ry="6" style="stroke:#111111;stroke-width:1.0;"/><rect fill="#555555" height="6" rx="2.5" ry="2.5" style="stroke:#555555;stroke-width:1.0;" width="1328" x="11" y="858"/><line style="stroke:#181818;stroke-width:1.0;" x1="649" x2="649" y1="30" y2="50"/><polygon fill="#181818" points="645,40,649,50,653,40,649,44" style="stroke:#181818;stroke-width:1.0;"/><line style="stroke:#181818;stroke-width:1.0;" x1="649" x2="649" y1="114.2344" y2="134.2344"/><polygon fill="#181818" points="645,124.2344,649,134.2344,653,124.2344,649,128.2344" style="stroke:#181818;stroke-width:1.0;"/><line style="stroke:#181818;stroke-width:1.0;" x1="339" x2="339" y1="523.5313" y2="558.5313"/><polygon fill="#181818" points="335,548.5313,339,558.5313,343,548.5313,339,552.5313" style="stroke:#181818;stroke-width:1.0;"/><line style="stroke:#181818;stroke-width:1.0;" x1="339" x2="339" y1="622.7656" y2="657.7656"/><polygon fill="#181818" points="335,647.7656,339,657.7656,343,647.7656,339,651.7656" style="stroke:#181818;stroke-width:1.0;"/><line style="stroke:#181818;stroke-width:1.0;" x1="113.5" x2="113.5" y1="425.3281" y2="544.5625"/><polygon fill="#181818" points="109.5,534.5625,113.5,544.5625,117.5,534.5625,113.5,538.5625" style="stroke:#181818;stroke-width:1.0;"/><line style="stroke:#181818;stroke-width:1.0;" x1="339" x2="339" y1="425.3281" y2="445.3281"/><polygon fill="#181818" points="335,435.3281,339,445.3281,343,435.3281,339,439.3281" style="stroke:#181818;stroke-width:1.0;"/><line style="stroke:#181818;stroke-width:1.0;" x1="113.5" x2="113.5" y1="622.7656" y2="742"/><polygon fill="#181818" points="109.5,732,113.5,742,117.5,732,113.5,736" style="stroke:#181818;stroke-width:1.0;"/><line style="stroke:#181818;stroke-width:1.0;" x1="339" x2="339" y1="722" y2="742"/><polygon fill="#181818" points="335,732,339,742,343,732,339,736" style="stroke:#181818;stroke-width:1.0;"/><line style="stroke:#181818;stroke-width:1.0;" x1="234.5" x2="234.5" y1="391.0742" y2="423.8281"/><polygon fill="#181818" points="230.5,413.8281,234.5,423.8281,238.5,413.8281,234.5,417.8281" style="stroke:#181818;stroke-width:1.0;"/><line style="stroke:#181818;stroke-width:1.0;" x1="560" x2="560" y1="509.5625" y2="544.5625"/><polygon fill="#181818" points="556,534.5625,560,544.5625,564,534.5625,560,538.5625" style="stroke:#181818;stroke-width:1.0;"/><line style="stroke:#181818;stroke-width:1.0;" x1="234.5" x2="234.5" y1="294.3711" y2="312.8711"/><polygon fill="#181818" points="230.5,302.8711,234.5,312.8711,238.5,302.8711,234.5,306.8711" style="stroke:#181818;stroke-width:1.0;"/><line style="stroke:#181818;stroke-width:1.0;" x1="560" x2="560" y1="294.3711" y2="431.3594"/><polygon fill="#181818" points="556,421.3594,560,431.3594,564,421.3594,560,425.3594" style="stroke:#181818;stroke-width:1.0;"/><line style="stroke:#181818;stroke-width:1.0;" x1="234.5" x2="234.5" y1="743.5" y2="762"/><polygon fill="#181818" points="230.5,752,234.5,762,238.5,752,234.5,756" style="stroke:#181818;stroke-width:1.0;"/><line style="stroke:#181818;stroke-width:1.0;" x1="560" x2="560" y1="622.7656" y2="762"/><polygon fill="#181818" points="556,752,560,762,564,752,560,756" style="stroke:#181818;stroke-width:1.0;"/><line style="stroke:#181818;stroke-width:1.0;" x1="352.5" x2="352.5" y1="268.4688" y2="292.8711"/><polygon fill="#181818" points="348.5,282.8711,352.5,292.8711,356.5,282.8711,352.5,286.8711" style="stroke:#181818;stroke-width:1.0;"/><line style="stroke:#181818;stroke-width:1.0;" x1="404" x2="688" y1="256.4688" y2="256.4688"/><polygon fill="#181818" points="684,517.0625,688,527.0625,692,517.0625,688,521.0625" style="stroke:#181818;stroke-width:1.0;"/><line style="stroke:#181818;stroke-width:1.0;" x1="688" x2="688" y1="256.4688" y2="794"/><line style="stroke:#181818;stroke-width:1.0;" x1="688" x2="364.5" y1="794" y2="794"/><polygon fill="#181818" points="374.5,790,364.5,794,374.5,798,370.5,794" style="stroke:#181818;stroke-width:1.0;"/><line style="stroke:#181818;stroke-width:1.0;" x1="352.5" x2="352.5" y1="763.5" y2="782"/><polygon fill="#181818" points="348.5,772,352.5,782,356.5,772,352.5,776" style="stroke:#181818;stroke-width:1.0;"/><line style="stroke:#181818;stroke-width:1.0;" x1="352.5" x2="352.5" y1="806" y2="826"/><polygon fill="#181818" points="348.5,816,352.5,826,356.5,816,352.5,820" style="stroke:#181818;stroke-width:1.0;"/><line style="stroke:#181818;stroke-width:1.0;" x1="829" x2="829" y1="460.9766" y2="480.9766"/><polygon fill="#181818" points="825,470.9766,829,480.9766,833,470.9766,829,474.9766" style="stroke:#181818;stroke-width:1.0;"/><line style="stroke:#181818;stroke-width:1.0;" x1="1227.5" x2="1227.5" y1="460.9766" y2="480.9766"/><polygon fill="#181818" points="1223.5,470.9766,1227.5,480.9766,1231.5,470.9766,1227.5,474.9766" style="stroke:#181818;stroke-width:1.0;"/><line style="stroke:#181818;stroke-width:1.0;" x1="829" x2="829" y1="573.1484" y2="593.1484"/><polygon fill="#181818" points="825,583.1484,829,593.1484,833,583.1484,829,587.1484" style="stroke:#181818;stroke-width:1.0;"/><line style="stroke:#181818;stroke-width:1.0;" x1="1227.5" x2="1227.5" y1="573.1484" y2="593.1484"/><polygon fill="#181818" points="1223.5,583.1484,1227.5,593.1484,1231.5,583.1484,1227.5,587.1484" style="stroke:#181818;stroke-width:1.0;"/><line style="stroke:#181818;stroke-width:1.0;" x1="1030.5" x2="1030.5" y1="435.0742" y2="459.4766"/><polygon fill="#181818" points="1026.5,449.4766,1030.5,459.4766,1034.5,449.4766,1030.5,453.4766" style="stroke:#181818;stroke-width:1.0;"/><line style="stroke:#181818;stroke-width:1.0;" x1="1092" x2="1323" y1="423.0742" y2="423.0742"/><polygon fill="#181818" points="1319,517.0625,1323,527.0625,1327,517.0625,1323,521.0625" style="stroke:#181818;stroke-width:1.0;"/><line style="stroke:#181818;stroke-width:1.0;" x1="1323" x2="1323" y1="423.0742" y2="631.0508"/><line style="stroke:#181818;stroke-width:1.0;" x1="1323" x2="1042.5" y1="631.0508" y2="631.0508"/><polygon fill="#181818" points="1052.5,627.0508,1042.5,631.0508,1052.5,635.0508,1048.5,631.0508" style="stroke:#181818;stroke-width:1.0;"/><line style="stroke:#181818;stroke-width:1.0;" x1="1030.5" x2="1030.5" y1="594.6484" y2="619.0508"/><polygon fill="#181818" points="1026.5,609.0508,1030.5,619.0508,1034.5,609.0508,1030.5,613.0508" style="stroke:#181818;stroke-width:1.0;"/><line style="stroke:#181818;stroke-width:1.0;" x1="1030.5" x2="1030.5" y1="643.0508" y2="678.0508"/><polygon fill="#181818" points="1026.5,668.0508,1030.5,678.0508,1034.5,668.0508,1030.5,672.0508" style="stroke:#181818;stroke-width:1.0;"/><line style="stroke:#181818;stroke-width:1.0;" x1="352.5" x2="352.5" y1="224.4688" y2="244.4688"/><polygon fill="#181818" points="348.5,234.4688,352.5,244.4688,356.5,234.4688,352.5,238.4688" style="stroke:#181818;stroke-width:1.0;"/><line style="stroke:#181818;stroke-width:1.0;" x1="1030.5" x2="1030.5" y1="224.4688" y2="411.0742"/><polygon fill="#181818" points="1026.5,401.0742,1030.5,411.0742,1034.5,401.0742,1030.5,405.0742" style="stroke:#181818;stroke-width:1.0;"/><line style="stroke:#181818;stroke-width:1.0;" x1="649" x2="649" y1="198.4688" y2="218.4688"/><polygon fill="#181818" points="645,208.4688,649,218.4688,653,208.4688,649,212.4688" style="stroke:#181818;stroke-width:1.0;"/><!--MD5=[e4fc2722cdb9ab1fc196ce6099356851]
@startuml
skinparam SwimlaneTitleFontStyle bold

start

:==Normal BAM
- - -
Input Normal BAM;
:==Input Validation
- - -
Validate the input BAM and corresponding index file;
fork
if (run_discovery) is (true) then
    split
        :==DELLY gSV
        - - -
        Call germline SVs using DELLY
        (BCF);
        split
            :==CIRCOS plot
            - - -
            Plot CIRCOS for DELLY gSV
            (PNG);
        split again
            :==DELLY gCNV
            - - -
            Call germline CNVs using DELLY
            (BCF);
            :==QC
            - - -
            Quality Check variant calls;
            :==Output Validation
            - - -
            Validate BCF output;
        end split
    split again
        :==Manta gSV
        - - -
        Call germline SVs using Manta
        (VCF);
        :==CIRCOS plot
        - - -
        Plot CIRCOS for Manta gSV
        (PNG);
    end split
else (false)
endif
stop

fork again
if (run_regenotyping) is (true) then
    split
    :==Regenotype gSV
    - - -
    Regenotype SVs
    using DELLY gSV calls
    (BCF);
    note right: input\nmerged\ngSV sites
    split again
    :==Regenotype gCNV
    - - -
    Regenotype CNVs
    using DELLY gCNV calls
    (BCF);
    note left: input\nmerged\ngCNV sites
    end split

else (false)
endif
stop

@enduml

PlantUML version 1.2022.6(Tue Jun 21 17:34:49 GMT 2022)
(GPL source distribution)
Java Runtime: OpenJDK Runtime Environment
JVM: OpenJDK 64-Bit Server VM
Default Encoding: UTF-8
Language: en
Country: US
--></g></svg>